<svg xmlns="http://www.w3.org/2000/svg" version="1.1" xmlns:xlink="http://www.w3.org/1999/xlink" xmlns:svgjs="http://svgjs.dev/svgjs" width="1500" height="1500" viewBox="0 0 1500 1500"><g transform="matrix(1,0,0,1,-0.323615160350073,-0.3236151603499593)"><svg viewBox="0 0 343 343" data-background-color="#ffffff" preserveAspectRatio="xMidYMid meet" height="1500" width="1500" xmlns="http://www.w3.org/2000/svg" xmlns:xlink="http://www.w3.org/1999/xlink"><g id="tight-bounds" transform="matrix(1,0,0,1,0.0740000000000407,0.07400000000001228)"><svg viewBox="0 0 342.85155851775386 342.85155851775386" height="342.85155851775386" width="342.85155851775386"><g><svg></svg></g><g><svg viewBox="0 0 342.85155851775386 342.85155851775386" height="342.85155851775386" width="342.85155851775386"><g><path d="M0 171.426c0-94.676 76.75-171.426 171.426-171.426 94.676 0 171.426 76.75 171.426 171.426 0 94.676-76.75 171.426-171.426 171.426-94.676 0-171.426-76.75-171.426-171.426zM171.426 339.614c92.888 0 168.189-75.301 168.188-168.188 0-92.888-75.301-168.189-168.188-168.189-92.888 0-168.189 75.301-168.189 168.189 0 92.888 75.301 168.189 168.189 168.188z" data-fill-palette-color="tertiary" fill="#b19dd0" stroke="transparent"></path><ellipse rx="164.56874808852186" ry="164.56874808852186" cx="171.42577925887693" cy="171.42577925887693" fill="#b19dd0" stroke="transparent" stroke-width="0" fill-opacity="1" data-fill-palette-color="tertiary"></ellipse></g><g transform="matrix(1,0,0,1,64.84655864529837,124.43672669202647)"><svg viewBox="0 0 213.1584412271571 93.97810513370094" height="93.97810513370094" width="213.1584412271571"><g><svg viewBox="0 0 213.1584412271571 93.97810513370094" height="93.97810513370094" width="213.1584412271571"><g><svg viewBox="0 0 213.1584412271571 93.97810513370094" height="93.97810513370094" width="213.1584412271571"><g transform="matrix(1,0,0,1,0,58.08223918721927)"><svg viewBox="0 0 213.1584412271571 35.89586594648166" height="35.89586594648166" width="213.1584412271571"><g id="textblocktransform"><svg viewBox="0 0 213.1584412271571 35.89586594648166" height="35.89586594648166" width="213.1584412271571" id="textblock"><g><svg viewBox="0 0 213.1584412271571 35.89586594648166" height="35.89586594648166" width="213.1584412271571"><g transform="matrix(1,0,0,1,0,0)"><svg width="213.1584412271571" viewBox="1 -44.58 267.6 45.07" height="35.89586594648166" data-palette-color="#ffffff"><path d="M14.04 0L8.15 0 1-42.97 5.81-42.97 8.67-24.78 11.11-8.79 11.21-8.79 13.33-24.78 15.8-42.97 20.56-42.97 14.04 0ZM30.22 0L25.19 0 25.19-36.62 30.22-36.62 30.22 0ZM30.22-39.99L25.19-39.99 25.19-44.58 30.22-44.58 30.22-39.99ZM42.5 0L37.5 0 37.5-43.43 42.5-43.43 42.5-19.21 49.7-36.62 54.76-36.62 47.04-18.53 55.17 0 50.02 0 42.5-17.82 42.5 0ZM64.76 0.32L64.76 0.32Q61.44 0.32 59.98-2.26 58.51-4.83 58.49-9.4L58.49-9.4 58.49-12.96Q58.49-15.38 59.32-16.98 60.15-18.58 61.66-19.65 63.18-20.73 65.23-21.59 67.28-22.46 69.72-23.44L69.72-23.44 69.72-26.27Q69.72-28.61 69.57-30.07 69.43-31.52 68.83-32.2 68.23-32.89 66.91-32.89L66.91-32.89Q65.62-32.89 64.97-32.2 64.32-31.52 64.13-30.05 63.93-28.59 63.93-26.25L63.93-26.25 63.93-24.98 58.95-24.98 58.95-26.03Q58.95-28.37 59.25-30.38 59.54-32.4 60.37-33.89 61.2-35.38 62.8-36.22 64.4-37.06 67.01-37.06L67.01-37.06Q69.5-37.06 71.03-36.27 72.55-35.47 73.37-33.94 74.19-32.4 74.48-30.14 74.77-27.88 74.77-24.93L74.77-24.93 74.77 0 69.74 0 69.74-3.17Q69.52-2.44 68.89-1.62 68.25-0.81 67.23-0.24 66.2 0.32 64.76 0.32ZM66.18-3.74L66.18-3.74Q67.5-3.74 68.45-4.58 69.4-5.42 69.72-6.25L69.72-6.25 69.72-20.19Q67.84-19.36 66.63-18.69 65.42-18.02 64.75-17.29 64.08-16.55 63.81-15.53 63.54-14.5 63.54-12.94L63.54-12.94 63.54-9.55Q63.54-6.45 64.08-5.09 64.62-3.74 66.18-3.74ZM88.15 0.49L88.15 0.49Q84.24 0.49 82.22-1.97 80.19-4.42 80.19-10.11L80.19-10.11 80.19-12.87 85.05-12.87 85.05-10.13Q85.05-7.06 85.72-5.42 86.39-3.78 87.93-3.78L87.93-3.78Q89.47-3.78 90.19-4.79 90.91-5.79 90.91-8.37L90.91-8.37Q90.91-9.67 90.52-10.95 90.13-12.23 89.32-13.49 88.52-14.75 87.25-15.94L87.25-15.94 84.66-18.41Q82.34-20.63 81.12-23.13 79.9-25.63 79.9-28.44L79.9-28.44Q79.9-32.89 82-34.97 84.1-37.06 87.78-37.06L87.78-37.06Q90.25-37.06 91.93-35.99 93.62-34.91 94.47-32.42 95.33-29.93 95.33-25.63L95.33-25.63 95.33-23.88 90.57-23.88 90.57-26.42Q90.57-29.49 89.97-31.13 89.37-32.76 87.83-32.76L87.83-32.76Q86.34-32.76 85.6-31.9 84.85-31.03 84.78-28.74L84.78-28.74Q84.76-27.56 85.09-26.37 85.41-25.17 86.17-24 86.93-22.83 88.12-21.7L88.12-21.7 90.76-19.24Q93.32-16.87 94.63-14.15 95.94-11.43 95.94-8.4L95.94-8.4Q95.94-4.25 94.05-1.88 92.15 0.49 88.15 0.49ZM105.92 0L100.92 0 100.92-43.43 105.92-43.43 105.92-32.74Q106.41-34.45 107.98-35.77 109.56-37.08 111.76-37.08L111.76-37.08Q114.51-37.08 116.08-35.13 117.64-33.18 117.64-29.2L117.64-29.2 117.64 0 112.63 0 112.63-28.78Q112.63-31.03 111.82-31.9 111-32.76 109.63-32.76L109.63-32.76Q108.63-32.76 107.78-32.29 106.92-31.81 106.42-30.8 105.92-29.79 105.92-28.17L105.92-28.17 105.92 0ZM143.54 0.49L143.54 0.49Q140.92 0.49 139.29-0.45 137.65-1.39 136.77-3.13 135.9-4.86 135.57-7.21 135.24-9.57 135.24-12.43L135.24-12.43 135.24-16.6 140.14-16.6 140.14-12.23Q140.14-7.71 140.79-5.77 141.44-3.83 143.59-3.83L143.59-3.83Q145.08-3.83 145.77-4.53 146.47-5.22 146.66-6.76 146.86-8.3 146.86-10.82L146.86-10.82Q146.86-13.7 145.84-15.77 144.83-17.85 142.93-19.75L142.93-19.75 140.12-22.56Q138.9-23.8 137.73-25.28 136.55-26.76 135.79-28.64 135.02-30.52 135.02-32.93L135.02-32.93Q135.02-36.18 135.7-38.55 136.38-40.92 138.19-42.21 140-43.51 143.32-43.51L143.32-43.51Q145.93-43.51 147.5-42.6 149.08-41.7 149.87-40.03 150.67-38.35 150.92-36.06 151.18-33.76 151.18-30.98L151.18-30.98 151.18-28.44 146.34-28.44 146.34-31.32Q146.34-33.94 146.14-35.68 145.93-37.43 145.3-38.31 144.66-39.18 143.32-39.18L143.32-39.18Q142.1-39.18 141.33-38.59 140.56-37.99 140.22-36.74 139.88-35.5 139.88-33.54L139.88-33.54Q139.88-31.84 140.29-30.73 140.71-29.61 141.55-28.66 142.39-27.71 143.61-26.42L143.61-26.42 146.54-23.32Q148.86-20.9 150.34-17.91 151.81-14.92 151.81-10.96L151.81-10.96Q151.81-7.4 151.12-4.83 150.42-2.27 148.64-0.89 146.86 0.49 143.54 0.49ZM161.85 0L156.84 0 156.84-43.43 161.85-43.43 161.85-32.74Q162.33-34.45 163.91-35.77 165.48-37.08 167.68-37.08L167.68-37.08Q170.44-37.08 172-35.13 173.56-33.18 173.56-29.2L173.56-29.2 173.56 0 168.56 0 168.56-28.78Q168.56-31.03 167.74-31.9 166.92-32.76 165.56-32.76L165.56-32.76Q164.56-32.76 163.7-32.29 162.85-31.81 162.35-30.8 161.85-29.79 161.85-28.17L161.85-28.17 161.85 0ZM185.99 0.32L185.99 0.32Q182.67 0.32 181.2-2.26 179.74-4.83 179.71-9.4L179.71-9.4 179.71-12.96Q179.71-15.38 180.54-16.98 181.37-18.58 182.89-19.65 184.4-20.73 186.45-21.59 188.5-22.46 190.94-23.44L190.94-23.44 190.94-26.27Q190.94-28.61 190.8-30.07 190.65-31.52 190.05-32.2 189.46-32.89 188.14-32.89L188.14-32.89Q186.84-32.89 186.2-32.2 185.55-31.52 185.35-30.05 185.16-28.59 185.16-26.25L185.16-26.25 185.16-24.98 180.18-24.98 180.18-26.03Q180.18-28.37 180.47-30.38 180.76-32.4 181.59-33.89 182.42-35.38 184.02-36.22 185.62-37.06 188.23-37.06L188.23-37.06Q190.72-37.06 192.25-36.27 193.78-35.47 194.59-33.94 195.41-32.4 195.71-30.14 196-27.88 196-24.93L196-24.93 196 0 190.97 0 190.97-3.17Q190.75-2.44 190.11-1.62 189.48-0.81 188.45-0.24 187.43 0.32 185.99 0.32ZM187.4-3.74L187.4-3.74Q188.72-3.74 189.67-4.58 190.63-5.42 190.94-6.25L190.94-6.25 190.94-20.19Q189.06-19.36 187.86-18.69 186.65-18.02 185.98-17.29 185.3-16.55 185.04-15.53 184.77-14.5 184.77-12.94L184.77-12.94 184.77-9.55Q184.77-6.45 185.3-5.09 185.84-3.74 187.4-3.74ZM207.59 0L202.56 0 202.56-36.62 207.59-36.62 207.59-32.54Q208.23-34.67 209.8-35.86 211.38-37.06 213.82-37.06L213.82-37.06Q213.87-37.06 213.88-36.41 213.89-35.77 213.89-34.94 213.89-34.11 213.89-33.46 213.89-32.81 213.89-32.81L213.89-32.81Q212.72-32.81 211.55-32.53 210.38-32.25 209.35-31.58 208.32-30.91 207.59-29.76L207.59-29.76 207.59 0ZM223.14 0L218.14 0 218.14-36.62 223.14-36.62 223.14-32.81Q223.63-34.55 225.11-35.82 226.58-37.08 228.85-37.08L228.85-37.08Q230.66-37.08 232-36.21 233.35-35.33 234.03-33.37L234.03-33.37Q234.93-35.03 236.52-36.06 238.11-37.08 240.23-37.08L240.23-37.08Q243.14-37.08 244.65-35.02 246.16-32.96 246.16-28.91L246.16-28.91 246.16 0 241.16 0 241.16-29.05Q241.16-31.13 240.35-31.95 239.55-32.76 238.23-32.76L238.23-32.76Q236.35-32.76 235.51-31.92 234.66-31.08 234.66-28.91L234.66-28.91 234.66 0 229.64 0 229.64-29.08Q229.64-31.03 228.88-31.9 228.12-32.76 226.75-32.76L226.75-32.76Q224.97-32.76 224.06-31.62 223.14-30.47 223.14-28.52L223.14-28.52 223.14 0ZM258.59 0.32L258.59 0.32Q255.27 0.32 253.8-2.26 252.34-4.83 252.31-9.4L252.31-9.4 252.31-12.96Q252.31-15.38 253.14-16.98 253.97-18.58 255.49-19.65 257-20.73 259.05-21.59 261.1-22.46 263.54-23.44L263.54-23.44 263.54-26.27Q263.54-28.61 263.4-30.07 263.25-31.52 262.65-32.2 262.05-32.89 260.74-32.89L260.74-32.89Q259.44-32.89 258.8-32.2 258.15-31.52 257.95-30.05 257.76-28.59 257.76-26.25L257.76-26.25 257.76-24.98 252.78-24.98 252.78-26.03Q252.78-28.37 253.07-30.38 253.36-32.4 254.19-33.89 255.02-35.38 256.62-36.22 258.22-37.06 260.83-37.06L260.83-37.06Q263.32-37.06 264.85-36.27 266.38-35.47 267.19-33.94 268.01-32.4 268.3-30.14 268.6-27.88 268.6-24.93L268.6-24.93 268.6 0 263.57 0 263.57-3.17Q263.35-2.44 262.71-1.62 262.08-0.81 261.05-0.24 260.03 0.32 258.59 0.32ZM260-3.74L260-3.74Q261.32-3.74 262.27-4.58 263.23-5.42 263.54-6.25L263.54-6.25 263.54-20.19Q261.66-19.36 260.46-18.69 259.25-18.02 258.58-17.29 257.9-16.55 257.64-15.53 257.37-14.5 257.37-12.94L257.37-12.94 257.37-9.55Q257.37-6.45 257.9-5.09 258.44-3.74 260-3.74Z" opacity="1" transform="matrix(1,0,0,1,0,0)" fill="#ffffff" class="wordmark-text-0" data-fill-palette-color="quaternary" id="text-0"></path></svg></g></svg></g></svg></g></svg></g><g transform="matrix(1,0,0,1,79.67988831786103,0)"><svg viewBox="0 0 53.798664591435056 49.60808673803766" height="49.60808673803766" width="53.798664591435056"><g><svg xmlns="http://www.w3.org/2000/svg" xmlns:xlink="http://www.w3.org/1999/xlink" version="1.1" x="0" y="0" viewBox="50 66 412.1 380" style="enable-background:new 0 0 512 512;" xml:space="preserve" height="49.60808673803766" width="53.798664591435056" class="icon-icon-0" data-fill-palette-color="quaternary" id="icon-0"><g fill="#ffffff" data-fill-palette-color="quaternary"><path d="M50 326.9C50 339.7 60.7 350 73.6 350H438.5C451.3 350 462.1 339.7 462.1 326.9V306H50z" fill="#ffffff" data-fill-palette-color="quaternary"></path><path d="M263.2 179.2C263.2 174.7 259.5 171 255 171S246.8 174.7 246.8 179.2 250.5 187.4 255 187.4C259.6 187.4 263.2 183.7 263.2 179.2" fill="#ffffff" data-fill-palette-color="quaternary"></path><path d="M255.1 116.1C250.6 116.1 246.9 119.8 246.9 124.3S250.6 132.5 255.1 132.5 263.3 128.8 263.3 124.3C263.2 119.8 259.6 116.1 255.1 116.1" fill="#ffffff" data-fill-palette-color="quaternary"></path><path d="M255.1 227.7C250.6 227.7 246.9 231.4 246.9 235.9S250.6 244.1 255.1 244.1 263.3 240.4 263.3 235.9C263.2 231.4 259.6 227.7 255.1 227.7" fill="#ffffff" data-fill-palette-color="quaternary"></path><path d="M200.2 171C195.7 171 192 174.7 192 179.2S195.7 187.4 200.2 187.4 208.4 183.7 208.4 179.2C208.4 174.6 204.7 171 200.2 171" fill="#ffffff" data-fill-palette-color="quaternary"></path><path d="M200.2 132.5C204.7 132.5 208.4 128.8 208.4 124.3S204.7 116.1 200.2 116.1 192 119.8 192 124.3 195.7 132.5 200.2 132.5" fill="#ffffff" data-fill-palette-color="quaternary"></path><path d="M200.2 227.7C195.7 227.7 192 231.4 192 235.9S195.7 244.1 200.2 244.1 208.4 240.4 208.4 235.9 204.7 227.7 200.2 227.7" fill="#ffffff" data-fill-palette-color="quaternary"></path><path d="M438.4 66H73.6C60.7 66 50.2 76.4 50 89.2V294H462V89.2C461.8 76.4 451.3 66 438.4 66M291.6 124.3C291.6 113.2 300.6 104.1 311.8 104.1S332 113.1 332 124.3 323 144.5 311.8 144.5 291.6 135.5 291.6 124.3M200.2 256.1C189 256.1 180 247.1 180 235.9S189 215.7 200.2 215.7 220.4 224.7 220.4 235.9 211.3 256.1 200.2 256.1M275.2 235.9C275.2 247.1 266.2 256.1 255.1 256.2 243.9 256.2 234.9 247.2 234.8 236.1 234.8 234.3 235 232.5 235.5 230.8L203.8 199C192.8 201 182.3 193.8 180.2 182.8 180 181.6 179.9 180.4 179.9 179.1 179.9 170.4 186 163 193 160.2V143.2C186 140.4 179.9 133 179.9 124.3 179.9 113.2 188.9 104.1 200.1 104.1S220.3 113.1 220.3 124.3C220.4 133.6 214.1 141.6 205.1 143.8V159.6C215.9 162.3 222.5 173.3 219.8 184.1 219 187.5 217.3 190.5 214.9 193L242.3 220.3C244.6 218.4 247.3 217 250.2 216.3V198.6C239.4 195.8 232.9 184.8 235.7 174S249.5 156.7 260.3 159.5 277.6 173.3 274.8 184.1C273.1 190.5 268.4 195.7 262.2 198V217C269.9 219.9 275.2 227.5 275.2 235.9M319 198.1V217C326 219.8 332.1 227.2 332.1 235.9 332.1 247 323.1 256.1 311.9 256.1 300.8 256.1 291.7 247.1 291.7 235.9 291.6 226.6 297.9 218.6 306.9 216.4V198.7C296.1 196 289.5 185 292.3 174.2 292.6 172.9 293.1 171.6 293.7 170.3L265.2 141.7C255.5 147.4 243.1 144.2 237.4 134.6 231.7 124.9 234.9 112.5 244.5 106.8 254.2 101.1 266.6 104.3 272.3 113.9 275.7 119.7 276.1 126.8 273.2 132.8L301.8 161.6C304.8 159.9 308.2 159 311.7 159 322.9 159 331.9 168 332 179.2 332.1 187.8 326 195.3 319 198.1" fill="#ffffff" data-fill-palette-color="quaternary"></path><path d="M311.8 132.5C316.3 132.5 320 128.8 320 124.3S316.3 116.1 311.8 116.1 303.6 119.8 303.6 124.3 307.3 132.5 311.8 132.5" fill="#ffffff" data-fill-palette-color="quaternary"></path><path d="M311.8 171C307.3 171 303.6 174.7 303.6 179.2S307.3 187.4 311.8 187.4 320 183.7 320 179.2C320 174.6 316.3 171 311.8 171" fill="#ffffff" data-fill-palette-color="quaternary"></path><path d="M311.8 227.7C307.3 227.7 303.6 231.4 303.6 235.9S307.3 244.1 311.8 244.1 320 240.4 320 235.9 316.3 227.7 311.8 227.7" fill="#ffffff" data-fill-palette-color="quaternary"></path><path d="M351.2 434H318V356H194V434H166.1C162.8 434 160.1 436.7 160.1 440S162.8 446 166.1 446H351.1C354.4 446 357.1 443.3 357.1 440S354.5 434 351.2 434" fill="#ffffff" data-fill-palette-color="quaternary"></path></g></svg></g></svg></g><g></g></svg></g></svg></g></svg></g></svg></g><defs></defs></svg><rect width="342.85155851775386" height="342.85155851775386" fill="none" stroke="none" visibility="hidden"></rect></g></svg></g></svg>